<mxfile host="app.diagrams.net" agent="Mozilla/5.0 (Windows NT 10.0; Win64; x64) AppleWebKit/537.36 (KHTML, like Gecko) Chrome/133.0.0.0 Safari/537.36" version="26.0.5">
  <diagram name="Trang-1" id="5ejj43Skfpe5UkQqUx6a">
    <mxGraphModel grid="1" page="1" gridSize="10" guides="1" tooltips="1" connect="1" arrows="1" fold="1" pageScale="1" pageWidth="827" pageHeight="1169" math="0" shadow="0">
      <root>
        <mxCell id="0" />
        <mxCell id="1" parent="0" />
        <mxCell id="bD1iXa6uIGsa23crCqH4-16" style="edgeStyle=orthogonalEdgeStyle;rounded=0;orthogonalLoop=1;jettySize=auto;html=1;entryX=0.5;entryY=0;entryDx=0;entryDy=0;" edge="1" parent="1" source="bD1iXa6uIGsa23crCqH4-1" target="bD1iXa6uIGsa23crCqH4-2">
          <mxGeometry relative="1" as="geometry" />
        </mxCell>
        <mxCell id="bD1iXa6uIGsa23crCqH4-1" value="Call API" style="strokeWidth=2;html=1;shape=mxgraph.flowchart.start_1;whiteSpace=wrap;" vertex="1" parent="1">
          <mxGeometry x="335" y="-180" width="110" height="60" as="geometry" />
        </mxCell>
        <mxCell id="bD1iXa6uIGsa23crCqH4-7" style="edgeStyle=orthogonalEdgeStyle;rounded=0;orthogonalLoop=1;jettySize=auto;html=1;" edge="1" parent="1">
          <mxGeometry relative="1" as="geometry">
            <mxPoint x="445" y="210" as="sourcePoint" />
            <mxPoint x="640" y="210" as="targetPoint" />
          </mxGeometry>
        </mxCell>
        <mxCell id="bD1iXa6uIGsa23crCqH4-17" style="edgeStyle=orthogonalEdgeStyle;rounded=0;orthogonalLoop=1;jettySize=auto;html=1;entryX=0.44;entryY=-0.02;entryDx=0;entryDy=0;entryPerimeter=0;" edge="1" parent="1" source="bD1iXa6uIGsa23crCqH4-2" target="bD1iXa6uIGsa23crCqH4-20">
          <mxGeometry relative="1" as="geometry">
            <Array as="points">
              <mxPoint x="390" y="105" />
            </Array>
          </mxGeometry>
        </mxCell>
        <mxCell id="bD1iXa6uIGsa23crCqH4-2" value="Request Update scoreboard" style="rounded=1;whiteSpace=wrap;html=1;absoluteArcSize=1;arcSize=14;strokeWidth=2;" vertex="1" parent="1">
          <mxGeometry x="340" y="-40" width="100" height="100" as="geometry" />
        </mxCell>
        <mxCell id="bD1iXa6uIGsa23crCqH4-4" value="Update Score" style="rounded=1;whiteSpace=wrap;html=1;absoluteArcSize=1;arcSize=14;strokeWidth=2;" vertex="1" parent="1">
          <mxGeometry x="345" y="600" width="100" height="100" as="geometry" />
        </mxCell>
        <mxCell id="bD1iXa6uIGsa23crCqH4-6" style="edgeStyle=orthogonalEdgeStyle;rounded=0;orthogonalLoop=1;jettySize=auto;html=1;entryX=1;entryY=0.5;entryDx=0;entryDy=0;" edge="1" parent="1">
          <mxGeometry relative="1" as="geometry">
            <mxPoint x="640" y="190" as="sourcePoint" />
            <mxPoint x="445" y="190" as="targetPoint" />
          </mxGeometry>
        </mxCell>
        <mxCell id="bD1iXa6uIGsa23crCqH4-8" value="Query Database" style="edgeLabel;html=1;align=center;verticalAlign=middle;resizable=0;points=[];" vertex="1" connectable="0" parent="bD1iXa6uIGsa23crCqH4-6">
          <mxGeometry x="0.4974" y="-2" relative="1" as="geometry">
            <mxPoint x="46" y="32" as="offset" />
          </mxGeometry>
        </mxCell>
        <mxCell id="bD1iXa6uIGsa23crCqH4-5" value="Database" style="strokeWidth=2;html=1;shape=mxgraph.flowchart.stored_data;whiteSpace=wrap;" vertex="1" parent="1">
          <mxGeometry x="640" y="170" width="100" height="60" as="geometry" />
        </mxCell>
        <mxCell id="bD1iXa6uIGsa23crCqH4-9" value="Result" style="text;html=1;align=center;verticalAlign=middle;resizable=0;points=[];autosize=1;strokeColor=none;fillColor=none;" vertex="1" parent="1">
          <mxGeometry x="510" y="170" width="60" height="30" as="geometry" />
        </mxCell>
        <mxCell id="G5q5QuLvW7kV_TsMMiGS-6" style="edgeStyle=orthogonalEdgeStyle;rounded=0;orthogonalLoop=1;jettySize=auto;html=1;" edge="1" parent="1" source="bD1iXa6uIGsa23crCqH4-20" target="G5q5QuLvW7kV_TsMMiGS-1">
          <mxGeometry relative="1" as="geometry" />
        </mxCell>
        <mxCell id="bD1iXa6uIGsa23crCqH4-20" value="Sync Data" style="rounded=1;whiteSpace=wrap;html=1;absoluteArcSize=1;arcSize=14;strokeWidth=2;" vertex="1" parent="1">
          <mxGeometry x="345" y="150" width="100" height="100" as="geometry" />
        </mxCell>
        <mxCell id="G5q5QuLvW7kV_TsMMiGS-4" style="edgeStyle=orthogonalEdgeStyle;rounded=0;orthogonalLoop=1;jettySize=auto;html=1;" edge="1" parent="1" source="G5q5QuLvW7kV_TsMMiGS-1" target="G5q5QuLvW7kV_TsMMiGS-3">
          <mxGeometry relative="1" as="geometry" />
        </mxCell>
        <mxCell id="G5q5QuLvW7kV_TsMMiGS-5" style="edgeStyle=orthogonalEdgeStyle;rounded=0;orthogonalLoop=1;jettySize=auto;html=1;entryX=0.5;entryY=0;entryDx=0;entryDy=0;" edge="1" parent="1" source="G5q5QuLvW7kV_TsMMiGS-1" target="bD1iXa6uIGsa23crCqH4-4">
          <mxGeometry relative="1" as="geometry" />
        </mxCell>
        <mxCell id="G5q5QuLvW7kV_TsMMiGS-66" value="Yes" style="edgeLabel;html=1;align=center;verticalAlign=middle;resizable=0;points=[];" connectable="0" vertex="1" parent="G5q5QuLvW7kV_TsMMiGS-5">
          <mxGeometry x="-0.1619" y="4" relative="1" as="geometry">
            <mxPoint x="11" y="12" as="offset" />
          </mxGeometry>
        </mxCell>
        <mxCell id="G5q5QuLvW7kV_TsMMiGS-1" value="Is Data valid" style="strokeWidth=2;html=1;shape=mxgraph.flowchart.decision;whiteSpace=wrap;" vertex="1" parent="1">
          <mxGeometry x="345" y="290" width="100" height="100" as="geometry" />
        </mxCell>
        <mxCell id="G5q5QuLvW7kV_TsMMiGS-3" value="Error Message" style="rounded=1;whiteSpace=wrap;html=1;absoluteArcSize=1;arcSize=14;strokeWidth=2;" vertex="1" parent="1">
          <mxGeometry x="130" y="770" width="100" height="100" as="geometry" />
        </mxCell>
        <mxCell id="G5q5QuLvW7kV_TsMMiGS-7" value="Result" style="strokeWidth=2;html=1;shape=mxgraph.flowchart.terminator;whiteSpace=wrap;" vertex="1" parent="1">
          <mxGeometry x="345" y="1080" width="100" height="60" as="geometry" />
        </mxCell>
        <mxCell id="G5q5QuLvW7kV_TsMMiGS-15" style="edgeStyle=orthogonalEdgeStyle;rounded=0;orthogonalLoop=1;jettySize=auto;html=1;" edge="1" parent="1" source="G5q5QuLvW7kV_TsMMiGS-12" target="G5q5QuLvW7kV_TsMMiGS-3">
          <mxGeometry relative="1" as="geometry" />
        </mxCell>
        <mxCell id="G5q5QuLvW7kV_TsMMiGS-43" value="No" style="edgeLabel;html=1;align=center;verticalAlign=middle;resizable=0;points=[];" connectable="0" vertex="1" parent="G5q5QuLvW7kV_TsMMiGS-15">
          <mxGeometry x="-0.1826" y="-6" relative="1" as="geometry">
            <mxPoint x="-8" y="-4" as="offset" />
          </mxGeometry>
        </mxCell>
        <mxCell id="G5q5QuLvW7kV_TsMMiGS-16" style="edgeStyle=orthogonalEdgeStyle;rounded=0;orthogonalLoop=1;jettySize=auto;html=1;entryX=0;entryY=0.5;entryDx=0;entryDy=0;" edge="1" parent="1" source="G5q5QuLvW7kV_TsMMiGS-12" target="G5q5QuLvW7kV_TsMMiGS-14">
          <mxGeometry relative="1" as="geometry" />
        </mxCell>
        <mxCell id="G5q5QuLvW7kV_TsMMiGS-42" value="Yes" style="edgeLabel;html=1;align=center;verticalAlign=middle;resizable=0;points=[];" connectable="0" vertex="1" parent="G5q5QuLvW7kV_TsMMiGS-16">
          <mxGeometry x="-0.2" y="11" relative="1" as="geometry">
            <mxPoint as="offset" />
          </mxGeometry>
        </mxCell>
        <mxCell id="G5q5QuLvW7kV_TsMMiGS-12" value="Is Update Success" style="strokeWidth=2;html=1;shape=mxgraph.flowchart.decision;whiteSpace=wrap;" vertex="1" parent="1">
          <mxGeometry x="345" y="770" width="100" height="100" as="geometry" />
        </mxCell>
        <mxCell id="G5q5QuLvW7kV_TsMMiGS-13" style="edgeStyle=orthogonalEdgeStyle;rounded=0;orthogonalLoop=1;jettySize=auto;html=1;entryX=0.5;entryY=0;entryDx=0;entryDy=0;entryPerimeter=0;" edge="1" parent="1" source="bD1iXa6uIGsa23crCqH4-4" target="G5q5QuLvW7kV_TsMMiGS-12">
          <mxGeometry relative="1" as="geometry" />
        </mxCell>
        <mxCell id="G5q5QuLvW7kV_TsMMiGS-14" value="Return Notification Success" style="rounded=1;whiteSpace=wrap;html=1;absoluteArcSize=1;arcSize=14;strokeWidth=2;" vertex="1" parent="1">
          <mxGeometry x="540" y="770" width="100" height="100" as="geometry" />
        </mxCell>
        <mxCell id="G5q5QuLvW7kV_TsMMiGS-70" value="" style="edgeStyle=orthogonalEdgeStyle;rounded=0;orthogonalLoop=1;jettySize=auto;html=1;" edge="1" parent="1" source="G5q5QuLvW7kV_TsMMiGS-19" target="G5q5QuLvW7kV_TsMMiGS-69">
          <mxGeometry relative="1" as="geometry" />
        </mxCell>
        <mxCell id="G5q5QuLvW7kV_TsMMiGS-19" value="Start" style="strokeWidth=2;html=1;shape=mxgraph.flowchart.start_1;whiteSpace=wrap;" vertex="1" parent="1">
          <mxGeometry x="340" y="-1360" width="100" height="60" as="geometry" />
        </mxCell>
        <mxCell id="G5q5QuLvW7kV_TsMMiGS-33" style="edgeStyle=orthogonalEdgeStyle;rounded=0;orthogonalLoop=1;jettySize=auto;html=1;" edge="1" parent="1" source="G5q5QuLvW7kV_TsMMiGS-20" target="G5q5QuLvW7kV_TsMMiGS-32">
          <mxGeometry relative="1" as="geometry" />
        </mxCell>
        <mxCell id="G5q5QuLvW7kV_TsMMiGS-20" value="Scoreboard" style="rounded=1;whiteSpace=wrap;html=1;absoluteArcSize=1;arcSize=14;strokeWidth=2;" vertex="1" parent="1">
          <mxGeometry x="340" y="-730" width="100" height="100" as="geometry" />
        </mxCell>
        <mxCell id="G5q5QuLvW7kV_TsMMiGS-24" style="edgeStyle=orthogonalEdgeStyle;rounded=0;orthogonalLoop=1;jettySize=auto;html=1;entryX=0.75;entryY=1;entryDx=0;entryDy=0;exitX=0.757;exitY=0.056;exitDx=0;exitDy=0;exitPerimeter=0;" edge="1" parent="1" source="G5q5QuLvW7kV_TsMMiGS-21" target="G5q5QuLvW7kV_TsMMiGS-47">
          <mxGeometry relative="1" as="geometry">
            <mxPoint x="1135" y="-510" as="sourcePoint" />
            <mxPoint x="965" y="-510" as="targetPoint" />
          </mxGeometry>
        </mxCell>
        <mxCell id="G5q5QuLvW7kV_TsMMiGS-21" value="Database" style="strokeWidth=2;html=1;shape=mxgraph.flowchart.stored_data;whiteSpace=wrap;" vertex="1" parent="1">
          <mxGeometry x="910" y="-400" width="100" height="60" as="geometry" />
        </mxCell>
        <mxCell id="G5q5QuLvW7kV_TsMMiGS-25" value="Query Database" style="edgeLabel;html=1;align=center;verticalAlign=middle;resizable=0;points=[];" connectable="0" vertex="1" parent="1">
          <mxGeometry x="900.003333333333" y="-540" as="geometry" />
        </mxCell>
        <mxCell id="G5q5QuLvW7kV_TsMMiGS-27" value="Result" style="text;html=1;align=center;verticalAlign=middle;resizable=0;points=[];autosize=1;strokeColor=none;fillColor=none;" vertex="1" parent="1">
          <mxGeometry x="990" y="-555" width="60" height="30" as="geometry" />
        </mxCell>
        <mxCell id="G5q5QuLvW7kV_TsMMiGS-30" style="edgeStyle=orthogonalEdgeStyle;rounded=0;orthogonalLoop=1;jettySize=auto;html=1;exitX=0.5;exitY=1;exitDx=0;exitDy=0;entryX=0.5;entryY=0;entryDx=0;entryDy=0;entryPerimeter=0;" edge="1" parent="1">
          <mxGeometry relative="1" as="geometry">
            <mxPoint x="940" y="-645" as="sourcePoint" />
            <mxPoint x="940" y="-400" as="targetPoint" />
          </mxGeometry>
        </mxCell>
        <mxCell id="G5q5QuLvW7kV_TsMMiGS-38" style="edgeStyle=orthogonalEdgeStyle;rounded=0;orthogonalLoop=1;jettySize=auto;html=1;" edge="1" parent="1" source="G5q5QuLvW7kV_TsMMiGS-32" target="G5q5QuLvW7kV_TsMMiGS-34">
          <mxGeometry relative="1" as="geometry" />
        </mxCell>
        <mxCell id="G5q5QuLvW7kV_TsMMiGS-32" value="Action" style="rounded=1;whiteSpace=wrap;html=1;absoluteArcSize=1;arcSize=14;strokeWidth=2;" vertex="1" parent="1">
          <mxGeometry x="340" y="-540" width="100" height="100" as="geometry" />
        </mxCell>
        <mxCell id="G5q5QuLvW7kV_TsMMiGS-35" style="edgeStyle=orthogonalEdgeStyle;rounded=0;orthogonalLoop=1;jettySize=auto;html=1;" edge="1" parent="1" source="G5q5QuLvW7kV_TsMMiGS-34">
          <mxGeometry relative="1" as="geometry">
            <mxPoint x="390" y="-180" as="targetPoint" />
          </mxGeometry>
        </mxCell>
        <mxCell id="G5q5QuLvW7kV_TsMMiGS-61" value="Yes" style="edgeLabel;html=1;align=center;verticalAlign=middle;resizable=0;points=[];" connectable="0" vertex="1" parent="G5q5QuLvW7kV_TsMMiGS-35">
          <mxGeometry x="-0.1312" y="-1" relative="1" as="geometry">
            <mxPoint as="offset" />
          </mxGeometry>
        </mxCell>
        <mxCell id="G5q5QuLvW7kV_TsMMiGS-34" value="Is Compelete" style="strokeWidth=2;html=1;shape=mxgraph.flowchart.decision;whiteSpace=wrap;" vertex="1" parent="1">
          <mxGeometry x="340" y="-390" width="100" height="100" as="geometry" />
        </mxCell>
        <mxCell id="G5q5QuLvW7kV_TsMMiGS-39" value="Push realtime service" style="rounded=1;whiteSpace=wrap;html=1;absoluteArcSize=1;arcSize=14;strokeWidth=2;" vertex="1" parent="1">
          <mxGeometry x="540" y="1060" width="100" height="100" as="geometry" />
        </mxCell>
        <mxCell id="G5q5QuLvW7kV_TsMMiGS-62" style="edgeStyle=orthogonalEdgeStyle;rounded=0;orthogonalLoop=1;jettySize=auto;html=1;entryX=0.5;entryY=0;entryDx=0;entryDy=0;" edge="1" parent="1" source="G5q5QuLvW7kV_TsMMiGS-40" target="G5q5QuLvW7kV_TsMMiGS-39">
          <mxGeometry relative="1" as="geometry" />
        </mxCell>
        <mxCell id="G5q5QuLvW7kV_TsMMiGS-40" value="Is in top&amp;nbsp;&lt;div&gt;10 scores&lt;/div&gt;" style="strokeWidth=2;html=1;shape=mxgraph.flowchart.decision;whiteSpace=wrap;" vertex="1" parent="1">
          <mxGeometry x="540" y="910" width="100" height="100" as="geometry" />
        </mxCell>
        <mxCell id="G5q5QuLvW7kV_TsMMiGS-46" value="Yes" style="text;html=1;align=center;verticalAlign=middle;resizable=0;points=[];autosize=1;strokeColor=none;fillColor=none;" vertex="1" parent="1">
          <mxGeometry x="590" y="1040" width="40" height="30" as="geometry" />
        </mxCell>
        <mxCell id="G5q5QuLvW7kV_TsMMiGS-47" value="Realtime Service" style="rounded=1;whiteSpace=wrap;html=1;absoluteArcSize=1;arcSize=14;strokeWidth=2;" vertex="1" parent="1">
          <mxGeometry x="910" y="-730" width="100" height="100" as="geometry" />
        </mxCell>
        <mxCell id="G5q5QuLvW7kV_TsMMiGS-52" style="edgeStyle=orthogonalEdgeStyle;rounded=0;orthogonalLoop=1;jettySize=auto;html=1;entryX=1;entryY=0.5;entryDx=0;entryDy=0;" edge="1" parent="1" source="G5q5QuLvW7kV_TsMMiGS-57" target="G5q5QuLvW7kV_TsMMiGS-20">
          <mxGeometry relative="1" as="geometry" />
        </mxCell>
        <mxCell id="G5q5QuLvW7kV_TsMMiGS-54" value="Yes&amp;nbsp;" style="edgeLabel;html=1;align=center;verticalAlign=middle;resizable=0;points=[];" connectable="0" vertex="1" parent="G5q5QuLvW7kV_TsMMiGS-52">
          <mxGeometry x="0.0286" y="-12" relative="1" as="geometry">
            <mxPoint x="162" as="offset" />
          </mxGeometry>
        </mxCell>
        <mxCell id="G5q5QuLvW7kV_TsMMiGS-50" value="Check for new data" style="strokeWidth=2;html=1;shape=mxgraph.flowchart.decision;whiteSpace=wrap;" vertex="1" parent="1">
          <mxGeometry x="680" y="-730" width="100" height="100" as="geometry" />
        </mxCell>
        <mxCell id="G5q5QuLvW7kV_TsMMiGS-51" style="edgeStyle=orthogonalEdgeStyle;rounded=0;orthogonalLoop=1;jettySize=auto;html=1;entryX=1;entryY=0.5;entryDx=0;entryDy=0;entryPerimeter=0;" edge="1" parent="1" source="G5q5QuLvW7kV_TsMMiGS-47" target="G5q5QuLvW7kV_TsMMiGS-50">
          <mxGeometry relative="1" as="geometry" />
        </mxCell>
        <mxCell id="G5q5QuLvW7kV_TsMMiGS-58" value="" style="edgeStyle=orthogonalEdgeStyle;rounded=0;orthogonalLoop=1;jettySize=auto;html=1;entryX=1;entryY=0.5;entryDx=0;entryDy=0;" edge="1" parent="1" source="G5q5QuLvW7kV_TsMMiGS-50" target="G5q5QuLvW7kV_TsMMiGS-57">
          <mxGeometry relative="1" as="geometry">
            <mxPoint x="650" y="-680" as="sourcePoint" />
            <mxPoint x="440" y="-680" as="targetPoint" />
          </mxGeometry>
        </mxCell>
        <mxCell id="G5q5QuLvW7kV_TsMMiGS-57" value="Fetch Data" style="rounded=1;whiteSpace=wrap;html=1;absoluteArcSize=1;arcSize=14;strokeWidth=2;" vertex="1" parent="1">
          <mxGeometry x="500" y="-730" width="100" height="100" as="geometry" />
        </mxCell>
        <mxCell id="G5q5QuLvW7kV_TsMMiGS-63" style="edgeStyle=orthogonalEdgeStyle;rounded=0;orthogonalLoop=1;jettySize=auto;html=1;entryX=0.5;entryY=0;entryDx=0;entryDy=0;entryPerimeter=0;" edge="1" parent="1" source="G5q5QuLvW7kV_TsMMiGS-14" target="G5q5QuLvW7kV_TsMMiGS-40">
          <mxGeometry relative="1" as="geometry" />
        </mxCell>
        <mxCell id="G5q5QuLvW7kV_TsMMiGS-64" style="edgeStyle=orthogonalEdgeStyle;rounded=0;orthogonalLoop=1;jettySize=auto;html=1;entryX=1;entryY=0.5;entryDx=0;entryDy=0;entryPerimeter=0;" edge="1" parent="1" source="G5q5QuLvW7kV_TsMMiGS-39" target="G5q5QuLvW7kV_TsMMiGS-7">
          <mxGeometry relative="1" as="geometry" />
        </mxCell>
        <mxCell id="G5q5QuLvW7kV_TsMMiGS-67" value="No" style="text;html=1;align=center;verticalAlign=middle;resizable=0;points=[];autosize=1;strokeColor=none;fillColor=none;" vertex="1" parent="1">
          <mxGeometry x="180" y="578" width="40" height="30" as="geometry" />
        </mxCell>
        <mxCell id="G5q5QuLvW7kV_TsMMiGS-68" style="edgeStyle=orthogonalEdgeStyle;rounded=0;orthogonalLoop=1;jettySize=auto;html=1;entryX=0;entryY=0.5;entryDx=0;entryDy=0;entryPerimeter=0;" edge="1" parent="1" source="G5q5QuLvW7kV_TsMMiGS-3" target="G5q5QuLvW7kV_TsMMiGS-7">
          <mxGeometry relative="1" as="geometry">
            <Array as="points">
              <mxPoint x="180" y="1110" />
            </Array>
          </mxGeometry>
        </mxCell>
        <mxCell id="G5q5QuLvW7kV_TsMMiGS-69" value="Login" style="rounded=1;whiteSpace=wrap;html=1;absoluteArcSize=1;arcSize=14;strokeWidth=2;" vertex="1" parent="1">
          <mxGeometry x="340" y="-1250" width="100" height="100" as="geometry" />
        </mxCell>
        <mxCell id="G5q5QuLvW7kV_TsMMiGS-75" style="edgeStyle=orthogonalEdgeStyle;rounded=0;orthogonalLoop=1;jettySize=auto;html=1;" edge="1" parent="1" source="G5q5QuLvW7kV_TsMMiGS-71" target="G5q5QuLvW7kV_TsMMiGS-73">
          <mxGeometry relative="1" as="geometry" />
        </mxCell>
        <mxCell id="G5q5QuLvW7kV_TsMMiGS-71" value="Is Success" style="strokeWidth=2;html=1;shape=mxgraph.flowchart.decision;whiteSpace=wrap;" vertex="1" parent="1">
          <mxGeometry x="340" y="-1090" width="100" height="100" as="geometry" />
        </mxCell>
        <mxCell id="G5q5QuLvW7kV_TsMMiGS-76" style="edgeStyle=orthogonalEdgeStyle;rounded=0;orthogonalLoop=1;jettySize=auto;html=1;entryX=0.5;entryY=0;entryDx=0;entryDy=0;" edge="1" parent="1" source="G5q5QuLvW7kV_TsMMiGS-73" target="G5q5QuLvW7kV_TsMMiGS-20">
          <mxGeometry relative="1" as="geometry" />
        </mxCell>
        <mxCell id="G5q5QuLvW7kV_TsMMiGS-73" value="Set cookie" style="strokeWidth=2;html=1;shape=mxgraph.flowchart.stored_data;whiteSpace=wrap;" vertex="1" parent="1">
          <mxGeometry x="347.5" y="-920" width="85" height="60" as="geometry" />
        </mxCell>
        <mxCell id="G5q5QuLvW7kV_TsMMiGS-74" style="edgeStyle=orthogonalEdgeStyle;rounded=0;orthogonalLoop=1;jettySize=auto;html=1;entryX=0.5;entryY=0;entryDx=0;entryDy=0;entryPerimeter=0;" edge="1" parent="1" source="G5q5QuLvW7kV_TsMMiGS-69" target="G5q5QuLvW7kV_TsMMiGS-71">
          <mxGeometry relative="1" as="geometry" />
        </mxCell>
      </root>
    </mxGraphModel>
  </diagram>
</mxfile>
